<svg xmlns="http://www.w3.org/2000/svg" xmlns:xlink="http://www.w3.org/1999/xlink" width="500" zoomAndPan="magnify" viewBox="0 0 375 374.999991" height="500" preserveAspectRatio="xMidYMid meet" version="1.0"><defs><g/><clipPath id="13dc5b2313"><path d="M 55.710938 148.386719 L 108 148.386719 L 108 230 L 55.710938 230 Z M 55.710938 148.386719 " clip-rule="nonzero"/></clipPath></defs><path fill="#ffa429" d="M 77.757812 181.609375 C 77.757812 183.546875 79.328125 185.117188 81.265625 185.117188 C 83.203125 185.117188 84.773438 183.546875 84.773438 181.609375 C 84.773438 179.671875 83.203125 178.101562 81.265625 178.101562 C 79.328125 178.101562 77.757812 179.671875 77.757812 181.609375 " fill-opacity="1" fill-rule="nonzero"/><path fill="#ffa429" d="M 89.351562 181.609375 C 89.351562 183.546875 90.921875 185.117188 92.859375 185.117188 C 94.796875 185.117188 96.367188 183.546875 96.367188 181.609375 C 96.367188 179.671875 94.796875 178.101562 92.859375 178.101562 C 90.921875 178.101562 89.351562 179.671875 89.351562 181.609375 " fill-opacity="1" fill-rule="nonzero"/><path fill="#ffa429" d="M 104.453125 178.101562 C 102.515625 178.101562 100.945312 179.671875 100.945312 181.609375 C 100.945312 183.546875 102.515625 185.117188 104.453125 185.117188 C 106.390625 185.117188 107.960938 183.546875 107.960938 181.609375 C 107.960938 179.671875 106.390625 178.101562 104.453125 178.101562 " fill-opacity="1" fill-rule="nonzero"/><g clip-path="url(#13dc5b2313)"><path fill="#ffa429" d="M 104.265625 200.402344 C 101.441406 202.027344 98.242188 203.066406 94.824219 203.355469 C 81.03125 204.523438 69.273438 193.085938 70.066406 179.265625 C 70.753906 167.261719 80.703125 157.742188 92.875 157.742188 C 97.023438 157.742188 100.917969 158.847656 104.269531 160.78125 C 105.769531 161.644531 107.640625 160.558594 107.640625 158.828125 L 107.640625 150.691406 C 107.640625 149.445312 106.632812 148.4375 105.390625 148.4375 L 57.957031 148.4375 C 56.714844 148.4375 55.707031 149.445312 55.707031 150.691406 L 55.707031 227.734375 C 55.707031 229.585938 57.828125 230.636719 59.300781 229.515625 L 80.808594 213.171875 C 81.199219 212.871094 81.675781 212.714844 82.164062 212.714844 L 105.390625 212.714844 C 106.632812 212.714844 107.640625 211.707031 107.640625 210.460938 L 107.640625 202.351562 C 107.640625 200.617188 105.765625 199.535156 104.265625 200.402344 " fill-opacity="1" fill-rule="nonzero"/></g><g fill="#ffa429" fill-opacity="1"><g transform="translate(112.214822, 212.999986)"><g><path d="M 46.5 -64.578125 L 64.578125 -64.578125 C 65.253906 -64.578125 65.835938 -64.328125 66.328125 -63.828125 C 66.816406 -63.335938 67.0625 -62.753906 67.0625 -62.078125 L 67.0625 -2.484375 C 67.0625 -1.804688 66.816406 -1.222656 66.328125 -0.734375 C 65.835938 -0.242188 65.253906 0 64.578125 0 L 46.5 0 C 45.820312 0 45.234375 -0.242188 44.734375 -0.734375 C 44.242188 -1.222656 44 -1.804688 44 -2.484375 L 44 -22.421875 L 29.0625 -22.421875 L 29.0625 -2.484375 C 29.0625 -1.804688 28.8125 -1.222656 28.3125 -0.734375 C 27.820312 -0.242188 27.238281 0 26.5625 0 L 8.484375 0 C 7.804688 0 7.222656 -0.226562 6.734375 -0.6875 C 6.242188 -1.15625 6 -1.753906 6 -2.484375 L 6 -62.078125 C 6 -62.753906 6.242188 -63.335938 6.734375 -63.828125 C 7.222656 -64.328125 7.804688 -64.578125 8.484375 -64.578125 L 26.5625 -64.578125 C 27.238281 -64.578125 27.820312 -64.328125 28.3125 -63.828125 C 28.8125 -63.335938 29.0625 -62.753906 29.0625 -62.078125 L 29.0625 -42.71875 L 44 -42.71875 L 44 -62.078125 C 44 -62.753906 44.242188 -63.335938 44.734375 -63.828125 C 45.234375 -64.328125 45.820312 -64.578125 46.5 -64.578125 Z M 46.5 -64.578125 "/></g></g></g><g fill="#ffa429" fill-opacity="1"><g transform="translate(185.27676, 212.999986)"><g><path d="M 26.203125 -64.578125 L 46.21875 -64.578125 C 48.425781 -64.578125 49.8125 -63.5625 50.375 -61.53125 L 70.9375 -2.671875 C 71 -2.492188 71.03125 -2.203125 71.03125 -1.796875 C 71.03125 -1.398438 70.828125 -1 70.421875 -0.59375 C 70.023438 -0.195312 69.550781 0 69 0 L 51.9375 0 C 50.09375 0 48.894531 -0.769531 48.34375 -2.3125 L 46.125 -8.390625 L 26.296875 -8.390625 L 24.078125 -2.3125 C 23.523438 -0.769531 22.328125 0 20.484375 0 L 3.40625 0 C 2.851562 0 2.378906 -0.195312 1.984375 -0.59375 C 1.585938 -1 1.390625 -1.398438 1.390625 -1.796875 C 1.390625 -2.203125 1.414062 -2.492188 1.46875 -2.671875 L 22.046875 -61.53125 C 22.597656 -63.5625 23.984375 -64.578125 26.203125 -64.578125 Z M 31 -26.390625 L 41.421875 -26.390625 L 36.15625 -43.546875 Z M 31 -26.390625 "/></g></g></g><g fill="#ffa429" fill-opacity="1"><g transform="translate(257.692954, 212.999986)"><g><path d="M 5.265625 -64.578125 L 59.3125 -64.578125 C 59.988281 -64.578125 60.570312 -64.328125 61.0625 -63.828125 C 61.5625 -63.335938 61.8125 -62.753906 61.8125 -62.078125 L 61.8125 -47.234375 C 61.8125 -46.554688 61.5625 -45.96875 61.0625 -45.46875 C 60.570312 -44.976562 59.988281 -44.734375 59.3125 -44.734375 L 44 -44.734375 L 44 -2.484375 C 44 -1.804688 43.753906 -1.222656 43.265625 -0.734375 C 42.773438 -0.242188 42.191406 0 41.515625 0 L 23.0625 0 C 22.382812 0 21.800781 -0.242188 21.3125 -0.734375 C 20.820312 -1.222656 20.578125 -1.804688 20.578125 -2.484375 L 20.578125 -44.734375 L 5.265625 -44.734375 C 4.585938 -44.734375 4 -44.976562 3.5 -45.46875 C 3.007812 -45.96875 2.765625 -46.554688 2.765625 -47.234375 L 2.765625 -62.078125 C 2.765625 -62.753906 3.007812 -63.335938 3.5 -63.828125 C 4 -64.328125 4.585938 -64.578125 5.265625 -64.578125 Z M 5.265625 -64.578125 "/></g></g></g><g fill="#ffa429" fill-opacity="1"><g transform="translate(117.247168, 234.306957)"><g><path d="M 3.34375 -10.453125 L 3.34375 -6.59375 L 9.53125 -6.59375 C 9.875 -6.59375 10.128906 -6.492188 10.296875 -6.296875 C 10.460938 -6.097656 10.546875 -5.878906 10.546875 -5.640625 C 10.546875 -5.410156 10.460938 -5.203125 10.296875 -5.015625 C 10.128906 -4.828125 9.875 -4.734375 9.53125 -4.734375 L 3.34375 -4.734375 L 3.34375 -1.046875 C 3.34375 -0.710938 3.226562 -0.453125 3 -0.265625 C 2.769531 -0.0859375 2.519531 0 2.25 0 C 1.957031 0 1.695312 -0.0859375 1.46875 -0.265625 C 1.238281 -0.453125 1.125 -0.707031 1.125 -1.03125 L 1.125 -11.1875 C 1.125 -11.488281 1.25 -11.753906 1.5 -11.984375 C 1.75 -12.210938 2.039062 -12.328125 2.375 -12.328125 L 9.890625 -12.328125 C 10.234375 -12.328125 10.488281 -12.226562 10.65625 -12.03125 C 10.820312 -11.832031 10.90625 -11.613281 10.90625 -11.375 C 10.90625 -11.144531 10.820312 -10.929688 10.65625 -10.734375 C 10.488281 -10.546875 10.234375 -10.453125 9.890625 -10.453125 Z M 3.34375 -10.453125 "/></g></g></g><g fill="#ffa429" fill-opacity="1"><g transform="translate(129.699639, 234.306957)"><g><path d="M 6.328125 -12.515625 C 6.535156 -12.515625 6.726562 -12.472656 6.90625 -12.390625 C 7.082031 -12.304688 7.21875 -12.164062 7.3125 -11.96875 L 12.78125 -1.234375 C 12.945312 -0.953125 12.992188 -0.703125 12.921875 -0.484375 C 12.847656 -0.273438 12.695312 -0.113281 12.46875 0 C 12.25 0.125 12.019531 0.1875 11.78125 0.1875 C 11.601562 0.1875 11.421875 0.140625 11.234375 0.046875 C 11.046875 -0.046875 10.898438 -0.1875 10.796875 -0.375 L 9.4375 -3.0625 L 3.21875 -3.0625 L 1.859375 -0.375 C 1.765625 -0.164062 1.625 -0.0195312 1.4375 0.0625 C 1.25 0.144531 1.066406 0.1875 0.890625 0.1875 C 0.671875 0.1875 0.453125 0.125 0.234375 0 C 0.0234375 -0.113281 -0.125 -0.273438 -0.21875 -0.484375 C -0.320312 -0.703125 -0.3125 -0.9375 -0.1875 -1.1875 L 5.3125 -11.96875 C 5.414062 -12.1875 5.546875 -12.332031 5.703125 -12.40625 C 5.867188 -12.476562 6.078125 -12.515625 6.328125 -12.515625 Z M 6.328125 -9.25 L 4.15625 -4.9375 L 8.484375 -4.9375 Z M 6.328125 -9.25 "/></g></g></g><g fill="#ffa429" fill-opacity="1"><g transform="translate(143.698985, 234.306957)"><g><path d="M 0.140625 -2.921875 C 0.046875 -3.296875 0.132812 -3.59375 0.40625 -3.8125 C 0.675781 -4.03125 0.976562 -4.140625 1.3125 -4.140625 C 1.570312 -4.140625 1.800781 -4.078125 2 -3.953125 C 2.195312 -3.828125 2.320312 -3.640625 2.375 -3.390625 C 2.519531 -2.972656 2.785156 -2.648438 3.171875 -2.421875 C 3.566406 -2.203125 4.007812 -2.050781 4.5 -1.96875 C 4.988281 -1.882812 5.445312 -1.84375 5.875 -1.84375 C 6.21875 -1.84375 6.585938 -1.867188 6.984375 -1.921875 C 7.378906 -1.972656 7.757812 -2.066406 8.125 -2.203125 C 8.488281 -2.335938 8.785156 -2.523438 9.015625 -2.765625 C 9.242188 -3.015625 9.359375 -3.332031 9.359375 -3.71875 C 9.359375 -4.125 9.1875 -4.421875 8.84375 -4.609375 C 8.507812 -4.804688 8.078125 -4.945312 7.546875 -5.03125 C 7.015625 -5.125 6.457031 -5.1875 5.875 -5.21875 C 5.21875 -5.269531 4.554688 -5.347656 3.890625 -5.453125 C 3.234375 -5.554688 2.628906 -5.722656 2.078125 -5.953125 C 1.523438 -6.191406 1.082031 -6.53125 0.75 -6.96875 C 0.414062 -7.414062 0.25 -8.007812 0.25 -8.75 C 0.25 -9.40625 0.414062 -9.96875 0.75 -10.4375 C 1.082031 -10.914062 1.519531 -11.304688 2.0625 -11.609375 C 2.601562 -11.921875 3.191406 -12.148438 3.828125 -12.296875 C 4.460938 -12.441406 5.082031 -12.515625 5.6875 -12.515625 C 6.351562 -12.515625 7.050781 -12.4375 7.78125 -12.28125 C 8.519531 -12.125 9.195312 -11.847656 9.8125 -11.453125 C 10.425781 -11.066406 10.882812 -10.519531 11.1875 -9.8125 C 11.28125 -9.445312 11.203125 -9.144531 10.953125 -8.90625 C 10.703125 -8.664062 10.410156 -8.546875 10.078125 -8.546875 C 9.867188 -8.546875 9.671875 -8.59375 9.484375 -8.6875 C 9.296875 -8.789062 9.164062 -8.925781 9.09375 -9.09375 C 8.9375 -9.488281 8.664062 -9.78125 8.28125 -9.96875 C 7.894531 -10.164062 7.46875 -10.296875 7 -10.359375 C 6.539062 -10.421875 6.109375 -10.453125 5.703125 -10.453125 C 5.441406 -10.453125 5.132812 -10.425781 4.78125 -10.375 C 4.425781 -10.320312 4.082031 -10.226562 3.75 -10.09375 C 3.414062 -9.96875 3.132812 -9.789062 2.90625 -9.5625 C 2.6875 -9.34375 2.578125 -9.0625 2.578125 -8.71875 C 2.578125 -8.3125 2.738281 -8.003906 3.0625 -7.796875 C 3.382812 -7.585938 3.8125 -7.441406 4.34375 -7.359375 C 4.875 -7.285156 5.457031 -7.222656 6.09375 -7.171875 C 6.757812 -7.109375 7.425781 -7.035156 8.09375 -6.953125 C 8.757812 -6.867188 9.363281 -6.71875 9.90625 -6.5 C 10.445312 -6.289062 10.878906 -5.96875 11.203125 -5.53125 C 11.523438 -5.101562 11.6875 -4.503906 11.6875 -3.734375 C 11.6875 -2.960938 11.5 -2.320312 11.125 -1.8125 C 10.757812 -1.3125 10.28125 -0.910156 9.6875 -0.609375 C 9.09375 -0.316406 8.460938 -0.113281 7.796875 0 C 7.128906 0.125 6.488281 0.1875 5.875 0.1875 C 5.375 0.1875 4.828125 0.140625 4.234375 0.046875 C 3.640625 -0.046875 3.0625 -0.210938 2.5 -0.453125 C 1.9375 -0.691406 1.441406 -1.007812 1.015625 -1.40625 C 0.597656 -1.8125 0.304688 -2.316406 0.140625 -2.921875 Z M 0.140625 -2.921875 "/></g></g></g><g fill="#ffa429" fill-opacity="1"><g transform="translate(156.712208, 234.306957)"><g><path d="M 10.015625 -12.328125 C 10.390625 -12.328125 10.671875 -12.222656 10.859375 -12.015625 C 11.054688 -11.804688 11.15625 -11.570312 11.15625 -11.3125 C 11.15625 -11.070312 11.054688 -10.847656 10.859375 -10.640625 C 10.671875 -10.429688 10.390625 -10.328125 10.015625 -10.328125 L 6.421875 -10.328125 L 6.4375 -1.03125 C 6.4375 -0.675781 6.3125 -0.414062 6.0625 -0.25 C 5.8125 -0.0820312 5.554688 0 5.296875 0 C 5.023438 0 4.769531 -0.0820312 4.53125 -0.25 C 4.289062 -0.414062 4.171875 -0.675781 4.171875 -1.03125 L 4.171875 -10.328125 L 0.59375 -10.328125 C 0.21875 -10.328125 -0.0507812 -10.429688 -0.21875 -10.640625 C -0.394531 -10.847656 -0.484375 -11.070312 -0.484375 -11.3125 C -0.484375 -11.570312 -0.394531 -11.804688 -0.21875 -12.015625 C -0.0507812 -12.222656 0.21875 -12.328125 0.59375 -12.328125 Z M 10.015625 -12.328125 "/></g></g></g><g fill="#ffa429" fill-opacity="1"><g transform="translate(168.623281, 234.306957)"><g/></g></g><g fill="#ffa429" fill-opacity="1"><g transform="translate(174.424216, 234.306957)"><g><path d="M 6.328125 -12.515625 C 6.535156 -12.515625 6.726562 -12.472656 6.90625 -12.390625 C 7.082031 -12.304688 7.21875 -12.164062 7.3125 -11.96875 L 12.78125 -1.234375 C 12.945312 -0.953125 12.992188 -0.703125 12.921875 -0.484375 C 12.847656 -0.273438 12.695312 -0.113281 12.46875 0 C 12.25 0.125 12.019531 0.1875 11.78125 0.1875 C 11.601562 0.1875 11.421875 0.140625 11.234375 0.046875 C 11.046875 -0.046875 10.898438 -0.1875 10.796875 -0.375 L 9.4375 -3.0625 L 3.21875 -3.0625 L 1.859375 -0.375 C 1.765625 -0.164062 1.625 -0.0195312 1.4375 0.0625 C 1.25 0.144531 1.066406 0.1875 0.890625 0.1875 C 0.671875 0.1875 0.453125 0.125 0.234375 0 C 0.0234375 -0.113281 -0.125 -0.273438 -0.21875 -0.484375 C -0.320312 -0.703125 -0.3125 -0.9375 -0.1875 -1.1875 L 5.3125 -11.96875 C 5.414062 -12.1875 5.546875 -12.332031 5.703125 -12.40625 C 5.867188 -12.476562 6.078125 -12.515625 6.328125 -12.515625 Z M 6.328125 -9.25 L 4.15625 -4.9375 L 8.484375 -4.9375 Z M 6.328125 -9.25 "/></g></g></g><g fill="#ffa429" fill-opacity="1"><g transform="translate(188.423561, 234.306957)"><g><path d="M 9.328125 -11.375 C 9.328125 -11.6875 9.453125 -11.921875 9.703125 -12.078125 C 9.953125 -12.242188 10.21875 -12.328125 10.5 -12.328125 C 10.800781 -12.328125 11.0625 -12.25 11.28125 -12.09375 C 11.507812 -11.945312 11.625 -11.707031 11.625 -11.375 L 11.625 -1.15625 C 11.625 -0.769531 11.488281 -0.476562 11.21875 -0.28125 C 10.945312 -0.09375 10.648438 0 10.328125 0 C 10.109375 0 9.890625 -0.0507812 9.671875 -0.15625 C 9.460938 -0.257812 9.296875 -0.394531 9.171875 -0.5625 L 3.25 -8.1875 L 3.328125 -7.09375 L 3.328125 -1.03125 C 3.328125 -0.664062 3.207031 -0.398438 2.96875 -0.234375 C 2.726562 -0.078125 2.46875 0 2.1875 0 C 1.882812 0 1.613281 -0.078125 1.375 -0.234375 C 1.144531 -0.398438 1.03125 -0.664062 1.03125 -1.03125 L 1.03125 -11.140625 C 1.03125 -11.523438 1.144531 -11.816406 1.375 -12.015625 C 1.613281 -12.222656 1.890625 -12.328125 2.203125 -12.328125 C 2.453125 -12.328125 2.660156 -12.273438 2.828125 -12.171875 C 3.003906 -12.078125 3.171875 -11.929688 3.328125 -11.734375 L 9.40625 -3.84375 L 9.328125 -5.140625 Z M 9.328125 -11.375 "/></g></g></g><g fill="#ffa429" fill-opacity="1"><g transform="translate(202.306885, 234.306957)"><g><path d="M 5.703125 -12.328125 C 6.878906 -12.328125 7.90625 -12.066406 8.78125 -11.546875 C 9.65625 -11.035156 10.335938 -10.316406 10.828125 -9.390625 C 11.316406 -8.472656 11.5625 -7.394531 11.5625 -6.15625 C 11.5625 -4.925781 11.316406 -3.847656 10.828125 -2.921875 C 10.335938 -1.992188 9.65625 -1.273438 8.78125 -0.765625 C 7.90625 -0.253906 6.878906 0 5.703125 0 L 1.71875 0 C 1.375 0 1.070312 -0.109375 0.8125 -0.328125 C 0.5625 -0.554688 0.4375 -0.828125 0.4375 -1.140625 L 0.4375 -11.203125 C 0.4375 -11.515625 0.5625 -11.78125 0.8125 -12 C 1.070312 -12.21875 1.375 -12.328125 1.71875 -12.328125 Z M 5.703125 -1.921875 C 6.429688 -1.921875 7.066406 -2.097656 7.609375 -2.453125 C 8.160156 -2.804688 8.585938 -3.296875 8.890625 -3.921875 C 9.191406 -4.554688 9.34375 -5.300781 9.34375 -6.15625 C 9.34375 -7 9.191406 -7.742188 8.890625 -8.390625 C 8.585938 -9.035156 8.160156 -9.535156 7.609375 -9.890625 C 7.066406 -10.242188 6.429688 -10.421875 5.703125 -10.421875 L 2.65625 -10.421875 L 2.65625 -1.921875 Z M 5.703125 -1.921875 "/></g></g></g><g fill="#ffa429" fill-opacity="1"><g transform="translate(215.532798, 234.306957)"><g/></g></g><g fill="#ffa429" fill-opacity="1"><g transform="translate(221.33374, 234.306957)"><g><path d="M 10.078125 -1.9375 C 10.410156 -1.9375 10.671875 -1.828125 10.859375 -1.609375 C 11.046875 -1.398438 11.140625 -1.171875 11.140625 -0.921875 C 11.140625 -0.691406 11.050781 -0.476562 10.875 -0.28125 C 10.707031 -0.09375 10.441406 0 10.078125 0 L 2.40625 0 C 2.007812 0 1.695312 -0.109375 1.46875 -0.328125 C 1.238281 -0.554688 1.125 -0.832031 1.125 -1.15625 L 1.125 -11.1875 C 1.125 -11.488281 1.238281 -11.753906 1.46875 -11.984375 C 1.695312 -12.210938 2.007812 -12.328125 2.40625 -12.328125 L 10.078125 -12.328125 C 10.421875 -12.328125 10.675781 -12.234375 10.84375 -12.046875 C 11.019531 -11.859375 11.109375 -11.640625 11.109375 -11.390625 C 11.109375 -11.160156 11.019531 -10.941406 10.84375 -10.734375 C 10.664062 -10.523438 10.410156 -10.421875 10.078125 -10.421875 L 3.328125 -10.421875 L 3.328125 -7.046875 L 9.734375 -7.046875 C 10.066406 -7.046875 10.316406 -6.941406 10.484375 -6.734375 C 10.648438 -6.535156 10.734375 -6.316406 10.734375 -6.078125 C 10.734375 -5.835938 10.648438 -5.617188 10.484375 -5.421875 C 10.316406 -5.234375 10.066406 -5.140625 9.734375 -5.140625 L 3.328125 -5.140625 L 3.328125 -1.9375 Z M 10.078125 -1.9375 "/></g></g></g><g fill="#ffa429" fill-opacity="1"><g transform="translate(234.211603, 234.306957)"><g><path d="M 6.328125 -12.515625 C 6.535156 -12.515625 6.726562 -12.472656 6.90625 -12.390625 C 7.082031 -12.304688 7.21875 -12.164062 7.3125 -11.96875 L 12.78125 -1.234375 C 12.945312 -0.953125 12.992188 -0.703125 12.921875 -0.484375 C 12.847656 -0.273438 12.695312 -0.113281 12.46875 0 C 12.25 0.125 12.019531 0.1875 11.78125 0.1875 C 11.601562 0.1875 11.421875 0.140625 11.234375 0.046875 C 11.046875 -0.046875 10.898438 -0.1875 10.796875 -0.375 L 9.4375 -3.0625 L 3.21875 -3.0625 L 1.859375 -0.375 C 1.765625 -0.164062 1.625 -0.0195312 1.4375 0.0625 C 1.25 0.144531 1.066406 0.1875 0.890625 0.1875 C 0.671875 0.1875 0.453125 0.125 0.234375 0 C 0.0234375 -0.113281 -0.125 -0.273438 -0.21875 -0.484375 C -0.320312 -0.703125 -0.3125 -0.9375 -0.1875 -1.1875 L 5.3125 -11.96875 C 5.414062 -12.1875 5.546875 -12.332031 5.703125 -12.40625 C 5.867188 -12.476562 6.078125 -12.515625 6.328125 -12.515625 Z M 6.328125 -9.25 L 4.15625 -4.9375 L 8.484375 -4.9375 Z M 6.328125 -9.25 "/></g></g></g><g fill="#ffa429" fill-opacity="1"><g transform="translate(248.210954, 234.306957)"><g><path d="M 0.140625 -2.921875 C 0.046875 -3.296875 0.132812 -3.59375 0.40625 -3.8125 C 0.675781 -4.03125 0.976562 -4.140625 1.3125 -4.140625 C 1.570312 -4.140625 1.800781 -4.078125 2 -3.953125 C 2.195312 -3.828125 2.320312 -3.640625 2.375 -3.390625 C 2.519531 -2.972656 2.785156 -2.648438 3.171875 -2.421875 C 3.566406 -2.203125 4.007812 -2.050781 4.5 -1.96875 C 4.988281 -1.882812 5.445312 -1.84375 5.875 -1.84375 C 6.21875 -1.84375 6.585938 -1.867188 6.984375 -1.921875 C 7.378906 -1.972656 7.757812 -2.066406 8.125 -2.203125 C 8.488281 -2.335938 8.785156 -2.523438 9.015625 -2.765625 C 9.242188 -3.015625 9.359375 -3.332031 9.359375 -3.71875 C 9.359375 -4.125 9.1875 -4.421875 8.84375 -4.609375 C 8.507812 -4.804688 8.078125 -4.945312 7.546875 -5.03125 C 7.015625 -5.125 6.457031 -5.1875 5.875 -5.21875 C 5.21875 -5.269531 4.554688 -5.347656 3.890625 -5.453125 C 3.234375 -5.554688 2.628906 -5.722656 2.078125 -5.953125 C 1.523438 -6.191406 1.082031 -6.53125 0.75 -6.96875 C 0.414062 -7.414062 0.25 -8.007812 0.25 -8.75 C 0.25 -9.40625 0.414062 -9.96875 0.75 -10.4375 C 1.082031 -10.914062 1.519531 -11.304688 2.0625 -11.609375 C 2.601562 -11.921875 3.191406 -12.148438 3.828125 -12.296875 C 4.460938 -12.441406 5.082031 -12.515625 5.6875 -12.515625 C 6.351562 -12.515625 7.050781 -12.4375 7.78125 -12.28125 C 8.519531 -12.125 9.195312 -11.847656 9.8125 -11.453125 C 10.425781 -11.066406 10.882812 -10.519531 11.1875 -9.8125 C 11.28125 -9.445312 11.203125 -9.144531 10.953125 -8.90625 C 10.703125 -8.664062 10.410156 -8.546875 10.078125 -8.546875 C 9.867188 -8.546875 9.671875 -8.59375 9.484375 -8.6875 C 9.296875 -8.789062 9.164062 -8.925781 9.09375 -9.09375 C 8.9375 -9.488281 8.664062 -9.78125 8.28125 -9.96875 C 7.894531 -10.164062 7.46875 -10.296875 7 -10.359375 C 6.539062 -10.421875 6.109375 -10.453125 5.703125 -10.453125 C 5.441406 -10.453125 5.132812 -10.425781 4.78125 -10.375 C 4.425781 -10.320312 4.082031 -10.226562 3.75 -10.09375 C 3.414062 -9.96875 3.132812 -9.789062 2.90625 -9.5625 C 2.6875 -9.34375 2.578125 -9.0625 2.578125 -8.71875 C 2.578125 -8.3125 2.738281 -8.003906 3.0625 -7.796875 C 3.382812 -7.585938 3.8125 -7.441406 4.34375 -7.359375 C 4.875 -7.285156 5.457031 -7.222656 6.09375 -7.171875 C 6.757812 -7.109375 7.425781 -7.035156 8.09375 -6.953125 C 8.757812 -6.867188 9.363281 -6.71875 9.90625 -6.5 C 10.445312 -6.289062 10.878906 -5.96875 11.203125 -5.53125 C 11.523438 -5.101562 11.6875 -4.503906 11.6875 -3.734375 C 11.6875 -2.960938 11.5 -2.320312 11.125 -1.8125 C 10.757812 -1.3125 10.28125 -0.910156 9.6875 -0.609375 C 9.09375 -0.316406 8.460938 -0.113281 7.796875 0 C 7.128906 0.125 6.488281 0.1875 5.875 0.1875 C 5.375 0.1875 4.828125 0.140625 4.234375 0.046875 C 3.640625 -0.046875 3.0625 -0.210938 2.5 -0.453125 C 1.9375 -0.691406 1.441406 -1.007812 1.015625 -1.40625 C 0.597656 -1.8125 0.304688 -2.316406 0.140625 -2.921875 Z M 0.140625 -2.921875 "/></g></g></g><g fill="#ffa429" fill-opacity="1"><g transform="translate(261.224178, 234.306957)"><g><path d="M 2.03125 -11.78125 L 5.59375 -6.921875 L 9.15625 -11.71875 C 9.289062 -11.90625 9.445312 -12.050781 9.625 -12.15625 C 9.800781 -12.269531 9.988281 -12.328125 10.1875 -12.328125 C 10.4375 -12.328125 10.65625 -12.238281 10.84375 -12.0625 C 11.039062 -11.894531 11.160156 -11.679688 11.203125 -11.421875 C 11.253906 -11.171875 11.175781 -10.90625 10.96875 -10.625 L 6.734375 -4.953125 L 6.734375 -1.15625 C 6.734375 -0.800781 6.609375 -0.519531 6.359375 -0.3125 C 6.117188 -0.101562 5.867188 0 5.609375 0 C 5.296875 0 5.03125 -0.101562 4.8125 -0.3125 C 4.59375 -0.519531 4.484375 -0.800781 4.484375 -1.15625 L 4.484375 -4.953125 L 0.15625 -10.671875 C -0.0390625 -10.941406 -0.113281 -11.203125 -0.0625 -11.453125 C -0.0195312 -11.710938 0.101562 -11.921875 0.3125 -12.078125 C 0.519531 -12.242188 0.75 -12.328125 1 -12.328125 C 1.425781 -12.328125 1.769531 -12.144531 2.03125 -11.78125 Z M 2.03125 -11.78125 "/></g></g></g></svg>